<svg width="20" height="22" viewBox="0 0 20 22" fill="none" xmlns="http://www.w3.org/2000/svg">
<path d="M4.99985 7V5C4.99985 3.67392 5.06217 1.93768 5.99985 1C6.93754 0.0623181 8.67377 0 9.99985 0C11.3259 0 13.0622 0.0623181 13.9999 1C14.9375 1.93768 14.9999 3.67392 14.9999 5V7H17.9999C18.2651 7 18.8123 6.81246 18.9999 7C19.1874 7.18754 18.9999 7.73478 18.9999 8V20C18.9999 20.2652 19.1874 20.8125 18.9999 21C18.8123 21.1875 18.2651 21 17.9999 21H1.99985C1.73464 21 1.18739 21.1875 0.999853 21C0.812317 20.8125 0.999853 20.2652 0.999853 20V8C0.999853 7.73478 0.812317 7.18754 0.999853 7C1.18739 6.81246 1.73464 7 1.99985 7H4.99985ZM4.99985 9H2.99985V19H16.9999V9H14.9999V11H12.9999V9H6.99985V11H4.99985V9ZM6.99985 7H12.9999V5C12.9999 4.20435 12.5625 3.56261 11.9999 3C11.4372 2.43739 10.7955 2 9.99985 2C9.2042 2 8.56246 2.43739 7.99985 3C7.43724 3.56261 6.99985 4.20435 6.99985 5V7Z" fill="#C4C4C4"/>
</svg>
